<?xml version='1.0' encoding='UTF-8' standalone='no'?>
<!-- Created with Fritzing (http://www.fritzing.org/) -->
<svg xmlns="http://www.w3.org/2000/svg" x="0in" y="0in" version="1.2" width="2.78487in" viewBox="0 0 200.51 168.245" xmlns:svg="http://www.w3.org/2000/svg"  height="2.33674in" baseProfile="tiny">
 <g partID="57470">
  <g  id="board">
   <rect fill="none" x="0.288" y="0.288" width="199.934" fill-opacity="0.5" stroke-width="0.5"  id="boardoutline" height="167.669" stroke="black"/>
  </g>
 </g>
 <g partID="57971">
  <g transform="translate(2.64176,15.7318)">
   <g  id="copper1">
    <g  id="copper0">
     <g cy="144" fill="none" stroke-width="1"  id="0" cx="151.384" r="1.883" stroke="black"/>
     <g cy="144" fill="none" stroke-width="1"  id="1" cx="158.583" r="1.883" stroke="black"/>
     <g cy="144" fill="none" stroke-width="1"  id="2" cx="165.786" r="1.883" stroke="black"/>
     <g cy="144" fill="none" stroke-width="1"  id="3" cx="172.985" r="1.883" stroke="black"/>
     <g cy="144" fill="none" stroke-width="1"  id="4" cx="180.185" r="1.883" stroke="black"/>
     <g cy="7.2" fill="none" stroke-width="1"  id="5" cx="118.263" r="1.884" stroke="black"/>
     <g cy="7.2" fill="none" stroke-width="1"  id="6" cx="111.065" r="1.884" stroke="black"/>
     <g cy="7.2" fill="none" stroke-width="1"  id="7" cx="103.864" r="1.884" stroke="black"/>
     <g cy="7.2" fill="none" stroke-width="1"  id="8" cx="96.664" r="1.884" stroke="black"/>
     <g cy="7.2" fill="none" stroke-width="1"  id="9" cx="89.464" r="1.884" stroke="black"/>
     <g cy="7.2" fill="none" stroke-width="1"  id="10" cx="82.264" r="1.884" stroke="black"/>
     <g cy="7.2" fill="none" stroke-width="1"  id="11" cx="75.064" r="1.884" stroke="black"/>
     <g cy="7.2" fill="none" stroke-width="1"  id="12" cx="67.864" r="1.884" stroke="black"/>
     <g cy="7.2" fill="none" stroke-width="1"  id="13" cx="60.664" r="1.884" stroke="black"/>
     <g cy="7.2" fill="none" stroke-width="1"  id="14" cx="53.463" r="1.884" stroke="black"/>
     <g cy="7.2" fill="none" stroke-width="1"  id="15" cx="180.185" r="1.884" stroke="black"/>
     <g cy="7.2" fill="none" stroke-width="1"  id="16" cx="172.985" r="1.884" stroke="black"/>
     <g cy="7.2" fill="none" stroke-width="1"  id="17" cx="165.786" r="1.884" stroke="black"/>
     <g cy="7.2" fill="none" stroke-width="1"  id="18" cx="158.583" r="1.884" stroke="black"/>
     <g cy="7.2" fill="none" stroke-width="1"  id="19" cx="151.384" r="1.884" stroke="black"/>
     <g cy="7.2" fill="none" stroke-width="1"  id="20" cx="144.185" r="1.884" stroke="black"/>
     <g cy="7.2" fill="none" stroke-width="1"  id="21" cx="136.985" r="1.884" stroke="black"/>
     <g cy="7.2" fill="none" stroke-width="1"  id="22" cx="129.784" r="1.884" stroke="black"/>
     <g cy="144" fill="none" stroke-width="1"  id="23" cx="86.584" r="1.883" stroke="black"/>
     <g cy="144" fill="none" stroke-width="1"  id="24" cx="79.384" r="1.883" stroke="black"/>
     <g cy="144" fill="none" stroke-width="1"  id="25" cx="93.784" r="1.883" stroke="black"/>
     <g cy="144" fill="none" stroke-width="1"  id="26" cx="100.985" r="1.883" stroke="black"/>
     <g cy="144" fill="none" stroke-width="1"  id="27" cx="108.185" r="1.883" stroke="black"/>
     <g cy="144" fill="none" stroke-width="1"  id="28" cx="115.384" r="1.883" stroke="black"/>
     <g cy="144" fill="none" stroke-width="1"  id="29" cx="122.583" r="1.883" stroke="black"/>
     <g cy="144" fill="none" stroke-width="1"  id="30" cx="129.784" r="1.883" stroke="black"/>
     <g cy="144" fill="none" stroke-width="1"  id="31" cx="144.185" r="1.883" stroke="black"/>
    </g>
   </g>
  </g>
 </g>
 <g partID="854113521">
  <g transform="translate(-16.9741,1.33181)">
   <g  id="copper1">
    <g  id="copper0">
     <g fill="none" x="20.664" y="5.184" width="3.96" stroke-width="1.44"  id="32" height="3.96" stroke="black"/>
     <g cy="7.2" fill="none" stroke-width="1.44"  id="33" cx="22.68" r="1.98" stroke="black"/>
     <g cy="7.2" fill="none" stroke-width="1.44"  id="34" cx="29.88" r="1.98" stroke="black"/>
     <g cy="7.2" fill="none" stroke-width="1.44"  id="35" cx="37.08" r="1.98" stroke="black"/>
     <g cy="7.2" fill="none" stroke-width="1.44"  id="36" cx="44.28" r="1.98" stroke="black"/>
     <g cy="7.2" fill="none" stroke-width="1.44"  id="37" cx="51.48" r="1.98" stroke="black"/>
     <g cy="7.2" fill="none" stroke-width="1.44"  id="38" cx="58.68" r="1.98" stroke="black"/>
     <g cy="7.2" fill="none" stroke-width="1.44"  id="39" cx="65.88" r="1.98" stroke="black"/>
     <g cy="7.2" fill="none" stroke-width="1.44"  id="40" cx="73.08" r="1.98" stroke="black"/>
     <g cy="7.2" fill="none" stroke-width="1.44"  id="41" cx="80.28" r="1.98" stroke="black"/>
     <g cy="7.2" fill="none" stroke-width="1.44"  id="42" cx="87.48" r="1.98" stroke="black"/>
     <g cy="7.2" fill="none" stroke-width="1.44"  id="43" cx="94.68" r="1.98" stroke="black"/>
     <g cy="7.2" fill="none" stroke-width="1.44"  id="44" cx="101.88" r="1.98" stroke="black"/>
     <g cy="7.2" fill="none" stroke-width="1.44"  id="45" cx="109.08" r="1.98" stroke="black"/>
     <g cy="7.2" fill="none" stroke-width="1.44"  id="46" cx="116.28" r="1.98" stroke="black"/>
     <g cy="7.2" fill="none" stroke-width="1.44"  id="47" cx="123.48" r="1.98" stroke="black"/>
     <g cy="7.2" fill="none" stroke-width="1.44"  id="48" cx="130.68" r="1.98" stroke="black"/>
    </g>
   </g>
  </g>
 </g>
 <g partID="854115341">
  <g transform="translate(45.8339,111.5)">
   <g transform="matrix(0,1,-1,0,0,0)">
    <g  id="copper1">
     <g  id="copper0">
      <g cy="11.327" fill="none" stroke-width="1"  id="49" cx="5.032" r="2.088" stroke="black"/>
      <g cy="18.527" fill="none" stroke-width="1"  id="50" cx="5.031" r="2.088" stroke="black"/>
      <g cy="25.728" fill="none" stroke-width="1"  id="51" cx="5.032" r="2.089" stroke="black"/>
      <g >
       <circle cy="4.548" fill="none" stroke-width="1.2844"  id="52" cx="26.292" r="3.823" stroke="black"/>
       <circle cy="32.506" fill="none" stroke-width="1.2844"  id="53" cx="26.292" r="3.823" stroke="black"/>
      </g>
     </g>
    </g>
   </g>
  </g>
 </g>
 <g partID="854118401">
  <g transform="translate(124.506,159.732)">
   <g transform="matrix(-1,0,0,-1,0,0)">
    <g gorn="0.2"  id="copper1">
     <g gorn="0.2.0"  id="copper0">
      <g cy="50.4" fill="none" connectorname="+5V" stroke-width="1.10268" gorn="0.2.0.0"  id="54" cx="10.8" r="1.96866" stroke="black"/>
      <g x="8.8313" fill="none" y="48.4313" width="3.93732" stroke-width="1.10268"  id="55" height="3.93732" stroke="black"/>
      <g cy="50.4" fill="none" connectorname="+3V3" stroke-width="1.10268" gorn="0.2.0.2"  id="56" cx="18" r="1.96866" stroke="black"/>
      <g cy="50.4" fill="none" connectorname="GND" stroke-width="1.10268" gorn="0.2.0.3"  id="57" cx="25.2" r="1.96866" stroke="black"/>
      <g cy="50.4" fill="none" connectorname="SCL_5.0V" stroke-width="1.10268" gorn="0.2.0.4"  id="58" cx="32.4" r="1.96866" stroke="black"/>
      <g cy="50.4" fill="none" connectorname="SDA_5.0V" stroke-width="1.10268" gorn="0.2.0.5"  id="59" cx="39.6" r="1.96866" stroke="black"/>
     </g>
    </g>
   </g>
  </g>
 </g>
 <g partID="854122981">
  <g transform="translate(154.391,109.794)">
   <g  id="copper1">
    <g cy="6.738" fill="none" stroke-linecap="round" stroke-linejoin="round" stroke-width="1.4"  id="60" cx="2.52" r="1.8" stroke="black"/>
    <g cy="6.746" fill="none" stroke-linecap="round" stroke-linejoin="round" stroke-width="1.4"  id="61" cx="9.729" r="1.8" stroke="black"/>
    <g cy="6.738" fill="none" stroke-linecap="round" stroke-linejoin="round" stroke-width="1.4"  id="62" cx="16.915" r="1.8" stroke="black"/>
   </g>
  </g>
 </g>
 <g partID="854128290">
  <g transform="translate(145.674,150.732)">
   <g transform="matrix(-1,0,0,-1,0,0)">
    <g  id="copper1">
     <rect x="3.168" y="2.51767e-15" fill="black" connectorname="NC" stroke-linecap="round" width="7.2" stroke-width="0"  id="63" height="6.48" stroke="none"/>
     <rect x="6.048" y="31.68" fill="black" connectorname="2" stroke-linecap="round" width="1.44" stroke-width="0"  id="64" height="5.04" stroke="none"/>
     <rect x="2.448" y="31.68" fill="black" connectorname="1" stroke-linecap="round" width="1.44" stroke-width="0"  id="65" height="5.04" stroke="none"/>
     <rect x="9.648" y="31.68" fill="black" connectorname="3" stroke-linecap="round" width="1.44" stroke-width="0"  id="66" height="5.04" stroke="none"/>
     <g  id="67"/>
    </g>
   </g>
  </g>
 </g>
 <g partID="854124311">
  <g transform="translate(181.206,112.032)">
   <g transform="matrix(1,0,0,1,0,0)">
    <g  id="copper1">
     <!-- <rect width="55" x="35" y="35" fill="none" height="55" stroke="rgb(255, 191, 0)" stroke-width="20" /> -->
     <g cy="4.5" fill="none" stroke-width="1.44"  id="68" cx="4.5" r="1.98" stroke="black"/>
     <g cy="4.5" fill="none" stroke-width="1.44"  id="69" cx="11.7" r="1.98" stroke="black"/>
    </g>
   </g>
  </g>
 </g>
 <g partID="854209951">
  <g transform="translate(139.457,29.5938)">
   <g  id="copper1">
    <g cy="3.01732" fill="none" stroke-width="0.850392"  id="70" cx="3.01732" r="0.992124" stroke="black"/>
   </g>
  </g>
 </g>
 <g partID="854210711">
  <g transform="translate(56.5126,29.5938)">
   <g  id="copper1">
    <g cy="3.01732" fill="none" stroke-width="0.850392"  id="71" cx="3.01732" r="0.992124" stroke="black"/>
   </g>
  </g>
 </g>
 <g partID="854213251">
  <g transform="translate(142.913,143.642)">
   <g  id="copper1">
    <g cy="3.01732" fill="none" stroke-width="0.850392"  id="72" cx="3.01732" r="0.992124" stroke="black"/>
   </g>
  </g>
 </g>
 <g partID="854212471">
  <g transform="translate(134.273,0.217785)">
   <g  id="copper1">
    <g cy="3.01732" fill="none" stroke-width="0.850392"  id="73" cx="3.01732" r="0.992124" stroke="black"/>
   </g>
  </g>
 </g>
</svg>
